#!OML:ASF H:\Male1\Project 1\Capture day 1\Session 1\Male1.ASF
:FULLY-SPECIFIED
:DEGREES
542
root 46.644 15.25 -0.343666 -1060.87 -89.7453 1058.8
lowerback 6.83713 -1.21259 1.44995
upperback 4.66617 -1.67922 0.916658
thorax 0.966927 -0.881559 0.226762
lowerneck -9.31406 7.46701 6.82873
upperneck 37.797 8.21613 -1.40514
head 15.1253 3.73668 -0.668418
rclavicle 1.71452e-014 -5.56597e-015
rhumerus -34.5535 -1.18345 -83.0985
rradius 30.7379
rwrist -18.9157
rhand -19.0481 -0.177889
rfingers 7.12502
rthumb 7.25868 -30.0334
lclavicle 1.71452e-014 -5.56597e-015
lhumerus -36.7809 -11.963 89.0522
lradius 31.7289
lwrist 1.08637
lhand -17.767 14.1507
lfingers 7.12502
lthumb 8.49524 43.9598
rfemur -14.9073 6.81827 21.8087
rtibia 33.5251
rfoot -31.3945 -24.757
rtoes -26.2279
lfemur 5.13847 -14.7753 -23.9649
ltibia 20.8495
lfoot -26.4666 19.1381
ltoes -12.4839
543
root 46.749 15.2528 -0.319282 -1143.21 -89.7153 1140.82
lowerback 7.10797 -1.10996 0.758673
upperback 4.81869 -1.5833 0.695645
thorax 0.986367 -0.848512 0.385143
lowerneck -9.10833 7.50658 6.95433
upperneck 37.8485 8.20749 -1.32306
head 15.1075 3.75782 -0.665115
rclavicle 2.56929e-014 -1.94809e-014
rhumerus -34.4082 -2.06094 -83.0405
rradius 30.0194
rwrist -18.5934
rhand -19.0249 0.167156
rfingers 7.12502
rthumb 7.2811 -29.6876
lclavicle 2.56929e-014 -1.94809e-014
lhumerus -36.5136 -12.0288 88.6574
lradius 31.5012
lwrist 0.773467
lhand -17.439 14.8211
lfingers 7.12502
lthumb 8.81171 44.6172
rfemur -15.1883 6.355 21.3496
rtibia 33.8797
rfoot -31.3049 -24.5391
rtoes -23.9909
lfemur 4.9069 -13.9458 -24.0901
ltibia 20.8047
lfoot -25.6348 18.3861
ltoes -12.3649
544
root 46.8494 15.2582 -0.290877 -1218 -89.4433 1215.47
lowerback 7.26711 -0.919257 0.332272
upperback 4.84171 -1.35366 0.53483
thorax 0.927143 -0.74179 0.44767
lowerneck -9.01381 7.60097 6.89359
upperneck 38.0265 8.30396 -1.20322
head 15.1681 3.79735 -0.593226
rclavicle 9.59136e-015 -1.98785e-016
rhumerus -34.3601 -2.67633 -83.0557
rradius 29.3241
rwrist -18.2337
rhand -19.0206 0.115107
rfingers 7.12502
rthumb 7.28526 -29.7395
lclavicle 9.59136e-015 -1.98785e-016
lhumerus -36.5053 -11.8223 88.2442
lradius 31.4845
lwrist 0.642777
lhand -17.2552 14.6434
lfingers 7.12502
lthumb 8.98905 44.4319
rfemur -15.6917 5.76841 21.0924
rtibia 34.2269
rfoot -30.9336 -24.0013
rtoes -28.7833
lfemur 4.60376 -12.9258 -24.0715
ltibia 20.7151
lfoot -24.9351 17.9368
ltoes -12.1553
545
root 46.9375 15.2767 -0.256429 -1242.57 -89.0748 1239.9
lowerback 7.37203 -0.797017 0.196677
upperback 4.83892 -1.19935 0.477162
thorax 0.866832 -0.667291 0.456638
lowerneck -9.08319 7.78684 6.79245
upperneck 38.4442 8.53202 -1.09064
head 15.392 3.87744 -0.487873
rclavicle 7.40473e-015 -7.7526e-015
rhumerus -34.3997 -3.0405 -83.0245
rradius 28.8011
rwrist -17.9523
rhand -18.6257 -0.102855
rfingers 7.12502
rthumb 7.66643 -29.9439
lclavicle 7.40473e-015 -7.7526e-015
lhumerus -36.7295 -11.4111 87.9302
lradius 31.6889
lwrist 0.814641
lhand -16.9586 17.1658
lfingers 7.12502
lthumb 9.27532 46.9418
rfemur -16.1254 4.9075 21.0586
rtibia 34.5978
rfoot -30.401 -23.3234
rtoes -30.9556
lfemur 4.56749 -12.5219 -24.0688
ltibia 20.3898
lfoot -24.2851 18.2589
ltoes -12.5203
546
root 47.022 15.2926 -0.221018 -1250.93 -88.5872 1248.2
lowerback 7.43586 -0.664589 0.0585773
upperback 4.79407 -1.02983 0.42646
thorax 0.785385 -0.584243 0.472502
lowerneck -9.08717 7.94886 6.75309
upperneck 38.7164 8.80645 -1.19588
head 15.5496 3.96164 -0.479511
rclavicle -2.21148e-015 -4.77083e-015
rhumerus -34.5391 -3.16806 -83.0141
rradius 28.5163
rwrist -17.7116
rhand -18.0201 -0.240132
rfingers 7.12502
rthumb 8.25098 -30.059
lclavicle -2.21148e-015 -4.77083e-015
lhumerus -37.1362 -11.0469 87.7784
lradius 32.0289
lwrist 1.52722
lhand -17.7608 15.9362
lfingers 7.12502
lthumb 8.50116 45.7451
rfemur -16.6547 4.13716 20.9701
rtibia 35.0771
rfoot -30.1152 -22.4047
rtoes -29.7946
lfemur 4.7586 -13.2083 -24.4131
ltibia 19.8244
lfoot -24.0811 19.2474
ltoes -11.2647
547
root 47.1028 15.3167 -0.192212 -1247.88 -88.1046 1245.07
lowerback 7.52056 -0.536292 -0.327771
upperback 4.74787 -0.881006 0.324306
thorax 0.693588 -0.515905 0.575945
lowerneck -9.0465 8.14813 6.67561
upperneck 38.9492 9.13329 -1.24896
head 15.6748 4.07062 -0.435675
rclavicle -1.18525e-014 6.75868e-015
rhumerus -34.6772 -3.1482 -83.0502
rradius 28.2935
rwrist -17.3064
rhand -17.4435 -0.0653665
rfingers 7.12502
rthumb 8.8074 -29.8616
lclavicle -1.18525e-014 6.75868e-015
lhumerus -37.6422 -10.8151 87.7718
lradius 32.3808
lwrist 2.63166
lhand -15.4819 25.9598
lfingers 7.12502
lthumb 10.6999 55.6673
rfemur -17.1127 3.52742 20.6499
rtibia 35.6436
rfoot -30.4077 -21.3405
rtoes -25.9442
lfemur 5.09613 -13.8462 -24.9372
ltibia 19.0236
lfoot -23.9108 19.9445
ltoes -9.32181
548
root 47.1784 15.3352 -0.171611 -1242.79 -87.7559 1239.91
lowerback 7.47876 -0.425651 -0.846357
upperback 4.75406 -0.764937 0.219661
thorax 0.726879 -0.467526 0.750857
lowerneck -8.73791 8.34025 6.77875
upperneck 38.7569 9.52887 -1.52995
head 15.5541 4.22391 -0.520301
rclavicle -1.18774e-014 -4.07509e-015
rhumerus -34.7392 -3.06382 -83.1194
rradius 28.1048
rwrist -16.7865
rhand -17.234 0.23828
rfingers 7.12502
rthumb 9.00952 -29.5493
lclavicle -1.18774e-014 -4.07509e-015
lhumerus -37.8942 -10.3529 87.5894
lradius 32.4504
lwrist 2.7096
lhand -15.4813 26.8352
lfingers 7.12502
lthumb 10.7005 56.5427
rfemur -17.6034 2.84112 20.2823
rtibia 36.3254
rfoot -30.7135 -20.592
rtoes -23.1157
lfemur 5.35996 -14.4368 -25.4508
ltibia 18.2414
lfoot -23.6038 20.4136
ltoes -6.865
549
root 47.2498 15.3438 -0.160076 -1241.59 -87.5431 1238.61
lowerback 7.45172 -0.318589 -1.2588
upperback 4.78262 -0.648082 0.168904
thorax 0.773344 -0.418156 0.921783
lowerneck -8.50763 8.50766 6.80002
upperneck 38.6111 9.85708 -1.69124
head 15.4587 4.35196 -0.548205
rclavicle 8.4235e-015 2.5842e-015
rhumerus -34.8086 -3.07345 -83.1834
rradius 27.9521
rwrist -16.25
rhand -17.43 0.607165
rfingers 7.12502
rthumb 8.82037 -29.1885
lclavicle 8.4235e-015 2.5842e-015
lhumerus -37.9451 -9.70996 87.2452
lradius 32.2323
lwrist 1.90506
lhand -18.0524 19.5286
lfingers 7.12502
lthumb 8.21976 49.3487
rfemur -17.9878 2.32217 20.1429
rtibia 37.0332
rfoot -30.6949 -20.1993
rtoes -21.3525
lfemur 5.5033 -14.8394 -25.6913
ltibia 17.7243
lfoot -23.1595 20.5827
ltoes -4.53568
550
root 47.3194 15.346 -0.158873 -1245.06 -87.3635 1241.84
lowerback 7.63638 -0.214865 -1.52831
upperback 4.81038 -0.532557 0.178707
thorax 0.700255 -0.367436 1.07701
lowerneck -8.28529 8.68848 6.75839
upperneck 38.5262 10.177 -1.75441
head 15.3842 4.47788 -0.525767
rclavicle -8.38623e-015 3.37934e-015
rhumerus -34.9007 -3.13189 -83.2842
rradius 27.8054
rwrist -15.7639
rhand -17.8968 0.848668
rfingers 7.12502
rthumb 8.36996 -28.9655
lclavicle -8.38623e-015 3.37934e-015
lhumerus -38.0735 -9.15632 86.9838
lradius 31.9552
lwrist 1.42924
lhand -17.9905 18.8604
lfingers 7.12502
lthumb 8.27947 48.6782
rfemur -18.0378 2.13583 20.3011
rtibia 37.7397
rfoot -30.2545 -19.9117
rtoes -20.3127
lfemur 5.53219 -14.8268 -25.6172
ltibia 17.685
lfoot -22.7519 20.609
ltoes -4.28646
551
root 47.3897 15.3378 -0.152809 -1250.3 -87.3595 1246.68
lowerback 8.04726 -0.179845 -1.50539
upperback 4.89207 -0.498981 0.199547
thorax 0.557522 -0.353405 1.08637
lowerneck -8.14474 8.91427 6.66414
upperneck 38.4223 10.5773 -1.81032
head 15.3194 4.633 -0.474792
rclavicle 1.44119e-015 -4.22417e-015
rhumerus -34.9873 -3.1951 -83.4054
rradius 27.7435
rwrist -15.5521
rhand -18.4762 0.7382
rfingers 7.12502
rthumb 7.81074 -29.0975
lclavicle 1.44119e-015 -4.22417e-015
lhumerus -38.3086 -8.84928 86.9517
lradius 31.8248
lwrist 1.85308
lhand -18.2177 19.0865
lfingers 7.12502
lthumb 8.06023 48.9128
rfemur -17.7259 1.86153 20.5922
rtibia 38.5063
rfoot -29.2778 -19.4825
rtoes -21.9364
lfemur 5.50378 -14.9002 -25.4581
ltibia 18.0923
lfoot -22.6976 20.5835
ltoes -4.23272
552
root 47.4509 15.3323 -0.147112 -1255.97 -87.4442 1252.17
lowerback 8.09333 -0.190135 -1.34061
upperback 4.95979 -0.50579 0.21966
thorax 0.60105 -0.355935 1.01506
lowerneck -7.89484 9.20027 6.90936
upperneck 38.3031 11.069 -2.07807
head 15.2763 4.84996 -0.557491
rclavicle -5.55355e-015 4.67144e-015
rhumerus -35.0563 -3.25632 -83.512
rradius 27.7431
rwrist -15.6626
rhand -18.8222 0.635388
rfingers 7.12502
rthumb 7.47675 -29.2125
lclavicle -5.55355e-015 4.67144e-015
lhumerus -38.5345 -8.746 87.1031
lradius 31.71
lwrist 3.05262
lhand -18.6166 20.6221
lfingers 7.12502
lthumb 7.67522 50.4628
rfemur -17.5361 1.83064 20.8923
rtibia 39.4083
rfoot -27.9259 -18.9267
rtoes -24.5977
lfemur 5.12368 -15.2138 -25.2187
ltibia 18.7513
lfoot -22.9903 20.5703
ltoes -3.97783
553
root 47.5069 15.3281 -0.146095 -1260.27 -87.4182 1256.45
lowerback 7.94779 -0.109312 -1.2376
upperback 4.99053 -0.38948 0.229487
thorax 0.709022 -0.296483 0.957629
lowerneck -7.85273 9.39953 6.98146
upperneck 38.2709 11.4256 -2.23315
head 15.2934 4.99552 -0.575978
rclavicle -2.96236e-015 1.70209e-015
rhumerus -35.1546 -3.42554 -83.5322
rradius 27.7578
rwrist -15.8948
rhand -18.6994 0.708038
rfingers 7.12502
rthumb 7.59528 -29.1356
lclavicle -2.96236e-015 1.70209e-015
lhumerus -38.5793 -8.3955 87.0052
lradius 31.3651
lwrist 2.72852
lhand -19.8808 17.7466
lfingers 7.12502
lthumb 6.45491 47.6282
rfemur -17.4339 2.24405 21.1193
rtibia 40.4413
rfoot -26.2756 -18.2849
rtoes -27.812
lfemur 4.57477 -15.4653 -25.008
ltibia 19.4382
lfoot -23.3324 20.7402
ltoes -5.42373
554
root 47.5696 15.3183 -0.153539 -1257.27 -87.908 1253.18
lowerback 8.28397 -0.154845 -1.43123
upperback 5.01492 -0.471391 0.170902
thorax 0.552779 -0.341612 1.01443
lowerneck -7.79187 9.59538 7.06419
upperneck 38.3328 11.7394 -2.30525
head 15.3457 5.13122 -0.568873
rclavicle -4.00675e-015 2.41026e-015
rhumerus -35.286 -3.54716 -83.5797
rradius 27.7692
rwrist -16.0639
rhand -18.3133 0.790461
rfingers 7.12502
rthumb 7.96799 -29.0394
lclavicle -4.00675e-015 2.41026e-015
lhumerus -38.6703 -8.00396 86.8224
lradius 31.0844
lwrist 1.75512
lhand -19.1916 18.1131
lfingers 7.12502
lthumb 7.12019 47.9733
rfemur -16.9288 2.71189 21.0221
rtibia 41.5229
rfoot -24.877 -17.4733
rtoes -29.9104
lfemur 4.23699 -15.9094 -25.1281
ltibia 20.0794
lfoot -23.415 20.603
ltoes -6.26048
555
root 47.6227 15.3152 -0.168648 -1249.47 -88.1846 1245.41
lowerback 8.22623 -0.142277 -1.75651
upperback 4.96893 -0.472911 0.0783274
thorax 0.539206 -0.346182 1.10158
lowerneck -7.61323 9.76406 7.13362
upperneck 38.2267 12.0483 -2.44339
head 15.2913 5.26321 -0.595371
rclavicle 1.44119e-015 -1.3418e-015
rhumerus -35.4519 -3.3844 -83.7886
rradius 27.8926
rwrist -16.1164
rhand -18.0607 0.511587
rfingers 7.12502
rthumb 8.21178 -29.3088
lclavicle 1.44119e-015 -1.3418e-015
lhumerus -38.876 -7.98937 86.9278
lradius 30.9026
lwrist 2.06577
lhand -19.6299 17.2335
lfingers 7.12502
lthumb 6.69707 47.1076
rfemur -16.6293 3.74033 20.7959
rtibia 42.5396
rfoot -23.962 -16.2942
rtoes -30.1639
lfemur 3.6687 -16.2751 -25.2799
ltibia 20.6442
lfoot -23.4789 20.3235
ltoes -5.14743
